<svg width="36" height="36" viewBox="0 0 36 36" fill="none" xmlns="http://www.w3.org/2000/svg">
<path fill-rule="evenodd" clip-rule="evenodd" d="M16.98 9.26367H7.5C5.8425 9.26367 4.5 10.6872 4.5 12.4407V28.3227C4.5 30.0777 5.8425 31.4997 7.5 31.4997H24C25.6575 31.4997 27 30.0777 27 28.3227V16.6977L21.129 22.9137C20.6163 23.4619 19.9486 23.8408 19.215 23.9997L15.1935 24.8517C12.5685 25.4067 10.2555 22.9572 10.7805 20.1792L11.5845 15.9207C11.73 15.1527 12.087 14.4462 12.6105 13.8927L16.98 9.26367Z" fill="#1B73D3"/>
<path fill-rule="evenodd" clip-rule="evenodd" d="M29.7686 6.47654C29.6169 6.09258 29.3946 5.74049 29.1131 5.43854C28.8362 5.14323 28.5026 4.90699 28.132 4.74404C27.767 4.58374 27.3727 4.50098 26.974 4.50098C26.5754 4.50098 26.1811 4.58374 25.816 4.74404C25.4455 4.90699 25.1119 5.14323 24.835 5.43854L24.016 6.30554L28.2941 10.8355L29.1131 9.96704C29.3975 9.66738 29.6202 9.31468 29.7686 8.92904C30.0776 8.14074 30.0776 7.26484 29.7686 6.47654ZM26.1746 13.081L21.8951 8.54954L14.7295 16.1395C14.6238 16.2522 14.5525 16.3927 14.524 16.5445L13.7201 20.8045C13.6151 21.3595 14.0785 21.8485 14.602 21.7375L18.625 20.887C18.7714 20.8544 18.9047 20.7787 19.0076 20.6695L26.1746 13.081Z" fill="#1B73D3"/>
</svg>
