<svg width="41" height="41" viewBox="0 0 41 41" fill="none" xmlns="http://www.w3.org/2000/svg">
<path fill-rule="evenodd" clip-rule="evenodd" d="M37.1566 20.4997L38.22 19.9667V19.9616L38.2123 19.9539L38.1969 19.9231L38.1431 19.8206L37.9381 19.4516C37.688 19.0201 37.4222 18.5979 37.1412 18.1858C36.2036 16.8096 35.1259 15.5343 33.9253 14.3804C31.0399 11.6129 26.5991 8.78906 20.5003 8.78906C14.4067 8.78906 9.96332 11.6104 7.07795 14.3804C5.87732 15.5343 4.79957 16.8096 3.86201 18.1858C3.48158 18.7471 3.12923 19.3269 2.80626 19.9231L2.79088 19.9539L2.78576 19.9616V19.9641C2.78576 19.9641 2.7832 19.9667 3.84663 20.4997L2.7832 19.9641C2.70098 20.1302 2.6582 20.3131 2.6582 20.4984C2.6582 20.6837 2.70098 20.8666 2.7832 21.0327L2.78063 21.0378L2.78832 21.0455L2.8037 21.0763C2.8836 21.2364 2.96907 21.3936 3.05995 21.5478C4.16336 23.4117 5.51315 25.1184 7.07282 26.6215C9.96076 29.389 14.4016 32.2078 20.5003 32.2078C26.5965 32.2078 31.0399 29.389 33.9278 26.6189C35.1262 25.4637 36.203 24.1886 37.1412 22.8136C37.5005 22.2846 37.8348 21.739 38.1431 21.1788L38.1969 21.0763L38.2123 21.0455L38.2174 21.0378V21.0352C38.2174 21.0352 38.22 21.0327 37.1566 20.4997ZM37.1566 20.4997L38.22 21.0352C38.3022 20.8691 38.345 20.6863 38.345 20.501C38.345 20.3156 38.3022 20.1328 38.22 19.9667L37.1566 20.4997ZM20.3466 16.5637C19.3027 16.5637 18.3015 16.9784 17.5634 17.7165C16.8253 18.4547 16.4106 19.4558 16.4106 20.4997C16.4106 21.5436 16.8253 22.5447 17.5634 23.2829C18.3015 24.021 19.3027 24.4357 20.3466 24.4357C21.3905 24.4357 22.3916 24.021 23.1297 23.2829C23.8679 22.5447 24.2826 21.5436 24.2826 20.4997C24.2826 19.4558 23.8679 18.4547 23.1297 17.7165C22.3916 16.9784 21.3905 16.5637 20.3466 16.5637ZM14.0377 20.4997C14.0377 18.8251 14.7029 17.2191 15.887 16.035C17.0711 14.8509 18.6771 14.1857 20.3517 14.1857C22.0263 14.1857 23.6323 14.8509 24.8164 16.035C26.0005 17.2191 26.6657 18.8251 26.6657 20.4997C26.6657 22.1743 26.0005 23.7803 24.8164 24.9644C23.6323 26.1485 22.0263 26.8137 20.3517 26.8137C18.6771 26.8137 17.0711 26.1485 15.887 24.9644C14.7029 23.7803 14.0377 22.1743 14.0377 20.4997Z" fill="#EEBA10"/>
</svg>
